<?xml version="1.0" encoding="utf-8"?>
<svg version="1.1" xmlns:xlink="http://www.w3.org/1999/xlink" width="30px" height="30px" xmlns="http://www.w3.org/2000/svg">
  <g transform="matrix(1 0 0 1 -361 -181 )">
    <path d="M 27.888157894736842 8.102678571428571  C 28.92763157894737 8.761160714285714  29.572368421052637 9.66517857142857  29.82236842105263 10.814732142857142  C 30.059210526315788 11.752232142857142  30.032894736842106 12.890625  29.74342105263158 14.229910714285714  C 28.59868421052632 19.185267857142858  24.881578947368425 21.66294642857143  18.592105263157894 21.66294642857143  L 17.723684210526315 21.66294642857143  C 17.394736842105264 21.66294642857143  17.105263157894736 21.75502232142857  16.855263157894736 21.939174107142858  C 16.60526315789474 22.123325892857142  16.447368421052637 22.360491071428573  16.38157894736842 22.650669642857142  L 16.302631578947366 22.96875  L 15.217105263157896 28.76116071428571  L 15.177631578947368 29.01227678571429  C 15.11184210526316 29.302455357142854  14.950657894736842 29.53962053571429  14.694078947368421 29.72377232142857  C 14.4375 29.907924107142858  14.144736842105264 30  13.81578947368421 30  L 8.861842105263158 30  C 8.585526315789473 30  8.368421052631579 29.916294642857142  8.210526315789474 29.74888392857143  C 8.052631578947368 29.58147321428571  7.99342105263158 29.380580357142858  8.032894736842106 29.146205357142858  C 8.151315789473683 28.521205357142858  8.325657894736842 27.583705357142858  8.555921052631579 26.333705357142858  C 8.786184210526319 25.083705357142854  8.960526315789474 24.146205357142854  9.078947368421053 23.521205357142858  C 9.197368421052634 22.89620535714286  9.375000000000002 21.961495535714285  9.61184210526316 20.717075892857142  C 9.848684210526317 19.472656249999996  10.026315789473683 18.537946428571427  10.144736842105264 17.91294642857143  C 10.210526315789474 17.499999999999996  10.49342105263158 17.293526785714285  10.993421052631579 17.293526785714285  L 13.578947368421053 17.293526785714285  C 15.328947368421055 17.315848214285715  16.88157894736842 17.198660714285715  18.236842105263158 16.941964285714285  C 20.539473684210527 16.50669642857143  22.427631578947373 15.703125  23.90131578947368 14.53125  C 25.24342105263158 13.47098214285714  26.263157894736842 12.098214285714283  26.960526315789473 10.412946428571429  C 27.276315789473685 9.631696428571427  27.506578947368425 8.889508928571429  27.65131578947368 8.186383928571429  C 27.664473684210527 8.119419642857142  27.68092105263158 8.077566964285714  27.700657894736842 8.060825892857142  C 27.720394736842103 8.044084821428571  27.74342105263158 8.038504464285712  27.769736842105264 8.044084821428571  C 27.796052631578952 8.049665178571427  27.835526315789476 8.069196428571429  27.888157894736842 8.102678571428571  Z M 25.3125 2.8125  C 26.055921052631582 3.72767857142857  26.42763157894737 4.821428571428571  26.42763157894737 6.09375  C 26.42763157894737 7.287946428571427  26.125 8.604910714285714  25.51973684210526 10.044642857142858  C 24.467105263157897 12.645089285714285  22.480263157894736 14.402901785714285  19.559210526315788 15.318080357142858  C 18.072368421052634 15.764508928571427  16.414473684210527 15.998883928571427  14.585526315789473 16.021205357142858  C 14.585526315789473 16.03236607142857  13.993421052631579 16.03794642857143  12.80921052631579 16.03794642857143  L 11.032894736842106 16.021205357142858  C 9.717105263157896 16.021205357142858  8.94078947368421 16.556919642857142  8.703947368421051 17.628348214285715  C 8.67763157894737 17.717633928571427  8.118421052631579 20.675223214285715  7.026315789473684 26.50111607142857  C 7.013157894736843 26.612723214285715  6.93421052631579 26.66852678571429  6.7894736842105265 26.66852678571429  L 0.9671052631578948 26.66852678571429  C 0.6776315789473685 26.66852678571429  0.4375 26.576450892857142  0.24671052631578946 26.392299107142858  C 0.05592105263157893 26.20814732142857  -0.019736842105263157 25.993303571428573  0.019736842105263157 25.747767857142858  L 4.598684210526316 1.1216517857142871  C 4.6644736842105265 0.7979910714285698  4.845394736842106 0.5301339285714246  5.141447368421052 0.3180803571428581  C 5.4375 0.10602678571428825  5.776315789473685 0  6.157894736842105 0  L 17.960526315789476 0  C 18.407894736842106 0  19.049342105263158 0.07254464285714635  19.88486842105263 0.21763392857142905  C 20.72039473684211 0.36272321428571175  21.453947368421055 0.541294642857143  22.085526315789473 0.7533482142857129  C 23.493421052631582 1.2109374999999978  24.569078947368425 1.8973214285714268  25.3125 2.8125  Z " fill-rule="nonzero" fill="#ffffff" stroke="none" transform="matrix(1 0 0 1 361 181 )" />
  </g>
</svg>