<?xml version="1.0" encoding="utf-8"?>
<svg version="1.1" xmlns:xlink="http://www.w3.org/1999/xlink" width="30px" height="30px" xmlns="http://www.w3.org/2000/svg">
  <g transform="matrix(1 0 0 1 -406 -181 )">
    <path d="M 22.3046875 21.26953125  C 24.1015625 20.983072916666664  25 20.533854166666668  25 19.921875  C 25 19.635416666666664  24.856770833333332 19.459635416666664  24.5703125 19.39453125  C 23.69791666666667 19.21223958333333  22.9296875 18.834635416666668  22.265625 18.261718749999996  C 21.6015625 17.688802083333336  21.08072916666667 16.979166666666664  20.703125 16.132812500000004  C 20.61197916666667 15.95052083333333  20.56640625 15.787760416666668  20.56640625 15.64453125  C 20.56640625 15.449218749999998  20.693359375 15.279947916666663  20.947265625 15.136718750000002  C 21.201171875 14.993489583333332  21.477864583333336 14.8828125  21.77734375 14.804687500000002  C 22.07682291666667 14.726562499999998  22.353515625 14.593098958333332  22.607421875 14.404296874999998  C 22.861328125 14.215494791666664  22.98828125 13.977864583333332  22.98828125 13.691406250000002  C 22.98828125 13.444010416666664  22.86783854166667 13.238932291666664  22.626953125 13.076171875000002  C 22.386067708333336 12.913411458333332  22.13541666666667 12.83203125  21.875 12.83203125  C 21.731770833333336 12.83203125  21.52994791666667 12.884114583333332  21.26953125 12.988281250000002  C 21.009114583333336 13.092447916666664  20.80078125 13.144531249999998  20.64453125 13.144531249999998  C 20.59244791666667 13.144531249999998  20.514322916666668 13.131510416666664  20.41015625 13.105468750000002  C 20.47526041666667 12.285156250000002  20.5078125 11.536458333333332  20.5078125 10.859374999999998  C 20.5078125 9.84375  20.397135416666668 9.101562499999998  20.17578125 8.632812499999998  C 19.70703125 7.6171875  19.039713541666668 6.826171875  18.173828125 6.259765624999999  C 17.307942708333336 5.693359375000001  16.31510416666667 5.410156249999999  15.195312499999998 5.410156249999999  C 12.6171875 5.410156249999999  10.826822916666668 6.484375000000001  9.82421875 8.632812499999998  C 9.58984375 9.127604166666666  9.47265625 9.876302083333329  9.47265625 10.878906250000002  C 9.47265625 11.373697916666664  9.51171875 12.115885416666666  9.58984375 13.105468750000002  C 9.459635416666668 13.131510416666664  9.361979166666668 13.144531249999998  9.296875 13.144531249999998  C 9.153645833333336 13.144531249999998  8.948567708333336 13.092447916666664  8.681640625 12.988281250000002  C 8.414713541666666 12.884114583333332  8.216145833333334 12.83203125  8.0859375 12.83203125  C 7.825520833333334 12.83203125  7.581380208333333 12.913411458333332  7.353515625 13.076171875000002  C 7.125651041666668 13.238932291666664  7.01171875 13.450520833333332  7.01171875 13.7109375  C 7.01171875 13.984375000000002  7.138671875 14.215494791666664  7.392578125 14.404296874999998  C 7.646484375 14.593098958333332  7.923177083333334 14.726562499999998  8.22265625 14.804687500000002  C 8.522135416666668 14.8828125  8.798828125000002 14.993489583333332  9.052734375 15.136718750000002  C 9.306640625 15.279947916666663  9.433593750000002 15.449218749999998  9.43359375 15.64453125  C 9.433593750000002 15.787760416666668  9.388020833333336 15.95052083333333  9.296875 16.132812500000004  C 8.463541666666668 17.9296875  7.174479166666668 19.016927083333332  5.4296875 19.39453125  C 5.143229166666667 19.459635416666664  5 19.635416666666664  5 19.921875  C 5 20.533854166666668  5.8984375 20.983072916666664  7.695312500000001 21.26953125  C 7.721354166666668 21.334635416666664  7.760416666666668 21.50390625  7.812500000000001 21.777343749999996  C 7.864583333333334 22.050781250000004  7.936197916666668 22.24934895833333  8.02734375 22.373046875000004  C 8.118489583333334 22.496744791666668  8.268229166666666 22.55859375  8.4765625 22.55859375  C 8.645833333333334 22.55859375  8.896484375 22.526041666666664  9.228515625 22.460937500000004  C 9.560546875000002 22.39583333333333  9.811197916666668 22.363281249999996  9.98046875 22.363281249999996  C 10.436197916666666 22.363281249999996  10.875651041666666 22.460937500000004  11.298828125 22.65625  C 11.722005208333334 22.8515625  12.076822916666666 23.063151041666664  12.36328125 23.291015625  C 12.649739583333336 23.518880208333332  13.024088541666668 23.73046875  13.486328125 23.92578125  C 13.948567708333334 24.12109375  14.446614583333334 24.21875  14.98046875 24.21875  C 15.540364583333334 24.21875  16.054687500000004 24.12109375  16.5234375 23.92578125  C 16.992187500000004 23.73046875  17.366536458333336 23.518880208333332  17.646484375 23.291015625  C 17.926432291666668 23.063151041666664  18.277994791666668 22.8515625  18.701171875 22.65625  C 19.124348958333336 22.460937500000004  19.563802083333336 22.363281249999996  20.01953125 22.363281249999996  C 20.188802083333336 22.363281249999996  20.442708333333336 22.392578124999996  20.78125 22.451171874999996  C 21.11979166666667 22.509765625  21.37369791666667 22.5390625  21.54296875 22.5390625  C 21.73828125 22.5390625  21.884765625 22.477213541666664  21.982421875 22.353515625  C 22.080078125 22.22981770833333  22.154947916666668 22.027994791666668  22.20703125 21.748046874999996  C 22.259114583333336 21.46809895833333  22.29166666666667 21.308593749999996  22.3046875 21.26953125  Z M 28.349609375 1.650390625000001  C 29.449869791666664 2.7506510416666643  30 4.0755208333333295  30 5.625  L 30 24.375  C 30 25.924479166666664  29.449869791666664 27.249348958333336  28.349609375 28.349609375  C 27.249348958333336 29.449869791666664  25.92447916666667 30  24.375 30  L 5.625 30  C 4.075520833333333 30  2.750651041666667 29.449869791666664  1.650390625 28.349609375  C 0.5501302083333333 27.249348958333336  0 25.924479166666664  0 24.375  L 0 5.625  C 0 4.0755208333333295  0.5501302083333333 2.7506510416666643  1.650390625 1.650390625000001  C 2.750651041666667 0.5501302083333315  4.075520833333333 0  5.625 0  L 24.375 0  C 25.92447916666667 0  27.249348958333336 0.5501302083333315  28.349609375 1.650390625000001  Z " fill-rule="nonzero" fill="#ffffff" stroke="none" transform="matrix(1 0 0 1 406 181 )" />
  </g>
</svg>