<?xml version="1.0" encoding="utf-8"?>
<svg version="1.1" xmlns:xlink="http://www.w3.org/1999/xlink" width="30px" height="30px" xmlns="http://www.w3.org/2000/svg">
  <g transform="matrix(1 0 0 1 -226 -131 )">
    <path d="M 5.625 0  L 24.375 0  C 25.92447916666667 0  27.249348958333336 0.5501302083333315  28.349609375 1.650390625000001  C 29.449869791666664 2.7506510416666643  30 4.0755208333333295  30 5.625  L 30 24.375  C 30 25.924479166666664  29.449869791666664 27.249348958333336  28.349609375 28.349609375  C 27.249348958333336 29.449869791666664  25.92447916666667 30  24.375 30  L 20.703125 30  L 20.703125 18.378906249999996  L 24.58984375 18.378906249999996  L 25.17578125 13.847656249999998  L 20.703125 13.847656249999998  L 20.703125 10.95703125  C 20.703125 10.227864583333329  20.85611979166667 9.68098958333333  21.162109375 9.31640625  C 21.468098958333336 8.951822916666666  22.063802083333336 8.769531250000002  22.94921875 8.769531250000002  L 25.33203125 8.749999999999998  L 25.33203125 4.707031249999999  C 24.51171875 4.589843749999999  23.352864583333336 4.531249999999999  21.85546875 4.531249999999999  C 20.08463541666667 4.531249999999999  18.668619791666668 5.05208333333333  17.607421875 6.09375  C 16.546223958333336 7.135416666666666  16.015625 8.606770833333332  16.015625 10.507812499999998  L 16.015625 13.847656249999998  L 12.109375 13.847656249999998  L 12.109375 18.378906249999996  L 16 18.378906249999996  L 16 30  L 5.625 30  C 4.075520833333333 30  2.750651041666667 29.449869791666664  1.650390625 28.349609375  C 0.5501302083333333 27.249348958333336  0 25.924479166666664  0 24.375  L 0 5.625  C 0 4.0755208333333295  0.5501302083333333 2.7506510416666643  1.650390625 1.650390625000001  C 2.750651041666667 0.5501302083333315  4.075520833333333 0  5.625 0  Z " fill-rule="nonzero" fill="#ffffff" stroke="none" transform="matrix(1 0 0 1 226 131 )" />
  </g>
</svg>