<?xml version="1.0" encoding="utf-8"?>
<svg version="1.1" xmlns:xlink="http://www.w3.org/1999/xlink" width="30px" height="30px" xmlns="http://www.w3.org/2000/svg">
  <g transform="matrix(1 0 0 1 -271 -131 )">
    <path d="M 18.53515625 18.535156250000004  C 19.51171875 17.558593749999996  20 16.380208333333332  20 15  C 20 13.619791666666664  19.51171875 12.441406249999998  18.53515625 11.464843750000002  C 17.55859375 10.48828125  16.380208333333336 10.000000000000002  15 10.000000000000002  C 13.619791666666668 10.000000000000002  12.44140625 10.48828125  11.46484375 11.464843750000002  C 10.48828125 12.441406249999998  10 13.619791666666664  10 15  C 10 16.380208333333332  10.48828125 17.558593749999996  11.46484375 18.535156250000004  C 12.44140625 19.51171875  13.619791666666668 20.000000000000004  15 20.000000000000004  C 16.380208333333336 20.000000000000004  17.55859375 19.51171875  18.53515625 18.535156250000004  Z M 20.44921875 9.55078125  C 21.946614583333336 11.048177083333329  22.6953125 12.864583333333329  22.6953125 15  C 22.6953125 17.135416666666668  21.946614583333336 18.951822916666668  20.44921875 20.44921875  C 18.951822916666668 21.946614583333332  17.135416666666668 22.6953125  15 22.6953125  C 12.864583333333334 22.6953125  11.048177083333334 21.946614583333332  9.55078125 20.44921875  C 8.053385416666668 18.951822916666668  7.3046875 17.135416666666668  7.3046875 15  C 7.3046875 12.864583333333329  8.053385416666668 11.048177083333329  9.55078125 9.55078125  C 11.048177083333334 8.053385416666664  12.864583333333334 7.304687500000001  15 7.304687500000001  C 17.135416666666668 7.304687500000001  18.951822916666668 8.053385416666664  20.44921875 9.55078125  Z M 24.27734375 5.722656250000001  C 24.62890625 6.074218750000001  24.8046875 6.497395833333331  24.8046875 6.992187499999999  C 24.8046875 7.486979166666666  24.62890625 7.91015625  24.27734375 8.26171875  C 23.92578125 8.61328125  23.502604166666668 8.7890625  23.0078125 8.7890625  C 22.513020833333332 8.7890625  22.08984375 8.61328125  21.73828125 8.26171875  C 21.38671875 7.91015625  21.2109375 7.486979166666666  21.2109375 6.992187499999999  C 21.2109375 6.497395833333331  21.38671875 6.074218750000001  21.73828125 5.722656250000001  C 22.08984375 5.371093750000001  22.513020833333332 5.195312500000001  23.0078125 5.195312500000001  C 23.502604166666668 5.195312500000001  23.92578125 5.371093750000001  24.27734375 5.722656250000001  Z M 16.494140625 2.685546874999999  C 15.589192708333336 2.6920572916666643  15.091145833333336 2.6953125  15 2.6953125  C 14.908854166666668 2.6953125  14.410807291666668 2.6920572916666643  13.505859375 2.685546874999999  C 12.600911458333334 2.6790364583333304  11.9140625 2.6790364583333304  11.4453125 2.685546874999999  C 10.9765625 2.6920572916666643  10.348307291666666 2.711588541666666  9.560546875 2.744140624999999  C 8.772786458333336 2.7766927083333313  8.102213541666668 2.841796875  7.548828125000001 2.939453125000001  C 6.995442708333334 3.037109374999999  6.529947916666668 3.1575520833333313  6.15234375 3.300781249999999  C 5.501302083333334 3.561197916666666  4.928385416666667 3.9388020833333304  4.43359375 4.433593750000001  C 3.938802083333334 4.928385416666665  3.5611979166666665 5.501302083333331  3.30078125 6.15234375  C 3.1575520833333335 6.529947916666664  3.037109375 6.995442708333331  2.939453125 7.548828124999999  C 2.841796875 8.102213541666666  2.7766927083333335 8.77278645833333  2.744140625 9.560546875000002  C 2.7115885416666665 10.348307291666664  2.692057291666667 10.976562499999998  2.685546875 11.445312499999998  C 2.679036458333334 11.914062499999998  2.679036458333334 12.600911458333329  2.685546875 13.505859375  C 2.692057291666667 14.410807291666664  2.6953125 14.908854166666664  2.6953125 15  C 2.6953125 15.091145833333332  2.692057291666667 15.589192708333332  2.685546875 16.494140625  C 2.679036458333334 17.399088541666668  2.679036458333334 18.085937499999996  2.685546875 18.554687499999996  C 2.692057291666667 19.023437499999996  2.7115885416666665 19.65169270833333  2.744140625 20.439453125000004  C 2.7766927083333335 21.227213541666664  2.841796875 21.89778645833333  2.939453125 22.451171874999996  C 3.037109375 23.004557291666664  3.1575520833333335 23.47005208333333  3.30078125 23.84765625  C 3.5611979166666665 24.498697916666664  3.938802083333334 25.071614583333336  4.43359375 25.56640625  C 4.928385416666667 26.061197916666668  5.501302083333334 26.438802083333332  6.15234375 26.69921875  C 6.529947916666668 26.842447916666664  6.995442708333334 26.962890625  7.548828125000001 27.060546875  C 8.102213541666668 27.158203125  8.772786458333336 27.223307291666664  9.560546875 27.255859375  C 10.348307291666666 27.288411458333332  10.9765625 27.307942708333336  11.4453125 27.314453125  C 11.9140625 27.320963541666668  12.600911458333334 27.320963541666668  13.505859375 27.314453125  C 14.410807291666668 27.307942708333336  14.908854166666668 27.3046875  15 27.3046875  C 15.091145833333336 27.3046875  15.589192708333336 27.307942708333336  16.494140625 27.314453125  C 17.399088541666668 27.320963541666668  18.0859375 27.320963541666668  18.5546875 27.314453125  C 19.0234375 27.307942708333336  19.651692708333336 27.288411458333332  20.439453125 27.255859375  C 21.22721354166667 27.223307291666664  21.897786458333332 27.158203125  22.451171875 27.060546875  C 23.004557291666668 26.962890625  23.470052083333336 26.842447916666664  23.84765625 26.69921875  C 24.498697916666668 26.438802083333332  25.071614583333336 26.061197916666668  25.56640625 25.56640625  C 26.06119791666667 25.071614583333336  26.438802083333332 24.498697916666664  26.69921875 23.84765625  C 26.842447916666668 23.47005208333333  26.962890625 23.004557291666664  27.060546875 22.451171874999996  C 27.158203125 21.89778645833333  27.223307291666668 21.227213541666664  27.255859375 20.439453125000004  C 27.288411458333332 19.65169270833333  27.307942708333336 19.023437499999996  27.314453125 18.554687499999996  C 27.32096354166667 18.085937499999996  27.32096354166667 17.399088541666668  27.314453125 16.494140625  C 27.307942708333336 15.589192708333332  27.3046875 15.091145833333332  27.3046875 15  C 27.3046875 14.908854166666664  27.307942708333336 14.410807291666664  27.314453125 13.505859375  C 27.32096354166667 12.600911458333329  27.32096354166667 11.914062499999998  27.314453125 11.445312499999998  C 27.307942708333336 10.976562499999998  27.288411458333332 10.348307291666664  27.255859375 9.560546875000002  C 27.223307291666668 8.77278645833333  27.158203125 8.102213541666666  27.060546875 7.548828124999999  C 26.962890625 6.995442708333331  26.842447916666668 6.529947916666664  26.69921875 6.15234375  C 26.438802083333332 5.501302083333331  26.06119791666667 4.928385416666665  25.56640625 4.433593750000001  C 25.071614583333336 3.9388020833333304  24.498697916666668 3.561197916666666  23.84765625 3.300781249999999  C 23.470052083333336 3.1575520833333313  23.004557291666668 3.037109374999999  22.451171875 2.939453125000001  C 21.897786458333332 2.841796875  21.22721354166667 2.7766927083333313  20.439453125 2.744140624999999  C 19.651692708333336 2.711588541666666  19.0234375 2.6920572916666643  18.5546875 2.685546874999999  C 18.0859375 2.6790364583333304  17.399088541666668 2.6790364583333304  16.494140625 2.685546874999999  Z M 29.90234375 8.808593749999998  C 29.967447916666664 9.954427083333332  30 12.018229166666664  30 15  C 30 17.981770833333336  29.967447916666664 20.045572916666664  29.90234375 21.191406249999996  C 29.772135416666668 23.899739583333336  28.96484375 25.99609375  27.48046875 27.48046875  C 25.99609375 28.96484375  23.899739583333336 29.772135416666664  21.19140625 29.90234375  C 20.045572916666668 29.967447916666664  17.981770833333336 30  15 30  C 12.018229166666666 30  9.954427083333334 29.967447916666664  8.80859375 29.90234375  C 6.100260416666668 29.772135416666664  4.003906250000001 28.96484375  2.51953125 27.48046875  C 1.03515625 25.99609375  0.22786458333333337 23.899739583333336  0.09765625 21.191406249999996  C 0.03255208333333333 20.045572916666664  0 17.981770833333336  0 15  C 0 12.018229166666664  0.03255208333333333 9.954427083333332  0.09765625 8.808593749999998  C 0.22786458333333337 6.100260416666665  1.03515625 4.003906249999999  2.51953125 2.51953125  C 4.003906250000001 1.035156250000001  6.100260416666668 0.22786458333333148  8.80859375 0.09765625000000111  C 9.954427083333334 0.03255208333332926  12.018229166666666 0  15 0  C 17.981770833333336 0  20.045572916666668 0.03255208333332926  21.19140625 0.09765625000000111  C 23.899739583333336 0.22786458333333148  25.99609375 1.035156250000001  27.48046875 2.51953125  C 28.96484375 4.003906249999999  29.772135416666668 6.100260416666665  29.90234375 8.808593749999998  Z " fill-rule="nonzero" fill="#ffffff" stroke="none" transform="matrix(1 0 0 1 271 131 )" />
  </g>
</svg>