<?xml version="1.0" encoding="utf-8"?>
<svg version="1.1" xmlns:xlink="http://www.w3.org/1999/xlink" width="30px" height="30px" xmlns="http://www.w3.org/2000/svg">
  <g transform="matrix(1 0 0 1 -316 -131 )">
    <path d="M 18.22265625 17.451550387596903  C 18.73046875 16.824935400516797  19.06901041666667 16.511627906976745  19.23828125 16.511627906976745  C 19.407552083333332 16.511627906976745  20.042317708333336 16.795865633074936  21.142578125 17.36434108527132  C 22.242838541666668 17.932816537467698  22.825520833333336 18.275193798449614  22.890625 18.391472868217058  C 22.916666666666668 18.456072351421188  22.9296875 18.55297157622739  22.9296875 18.68217054263566  C 22.9296875 19.108527131782942  22.81901041666667 19.599483204134366  22.59765625 20.155038759689923  C 22.389322916666668 20.65891472868217  21.927083333333332 21.08204134366925  21.2109375 21.424418604651162  C 20.49479166666667 21.76679586563307  19.830729166666668 21.93798449612403  19.21875 21.93798449612403  C 18.476562500000004 21.93798449612403  17.239583333333332 21.537467700258397  15.507812500000002 20.736434108527135  C 14.231770833333336 20.155038759689923  13.125 19.392764857881133  12.1875 18.449612403100776  C 11.25 17.506459948320416  10.286458333333334 16.311369509043924  9.296875 14.864341085271318  C 8.359375 13.48191214470284  7.897135416666668 12.228682170542637  7.91015625 11.104651162790697  L 7.91015625 10.949612403100774  C 7.949218750000001 9.773901808785526  8.430989583333336 8.753229974160204  9.35546875 7.887596899224805  C 9.66796875 7.603359173126613  10.006510416666668 7.461240310077518  10.37109375 7.461240310077518  C 10.44921875 7.461240310077518  10.56640625 7.470930232558139  10.72265625 7.4903100775193785  C 10.87890625 7.5096899224806215  11.002604166666668 7.5193798449612395  11.09375 7.5193798449612395  C 11.341145833333334 7.5193798449612395  11.513671875 7.561369509043926  11.611328125 7.645348837209303  C 11.708984375 7.729328165374676  11.809895833333334 7.906976744186047  11.9140625 8.17829457364341  C 12.018229166666666 8.436692506459947  12.233072916666668 9.005167958656328  12.55859375 9.88372093023256  C 12.884114583333336 10.762273901808785  13.046875 11.246770025839792  13.046875 11.337209302325581  C 13.046875 11.608527131782944  12.822265625 11.979974160206718  12.373046875 12.4515503875969  C 11.923828125 12.923126614987076  11.69921875 13.223514211886304  11.69921875 13.352713178294575  C 11.69921875 13.443152454780362  11.731770833333336 13.540051679586561  11.796875 13.643410852713178  C 12.239583333333336 14.58656330749354  12.903645833333336 15.471576227390178  13.7890625 16.298449612403097  C 14.518229166666668 16.983204134366925  15.501302083333336 17.635658914728683  16.73828125 18.25581395348837  C 16.89453125 18.346253229974156  17.037760416666668 18.391472868217058  17.16796875 18.391472868217058  C 17.363281250000004 18.391472868217058  17.714843750000004 18.078165374677  18.22265625 17.451550387596903  Z M 8.53515625 24.767441860465116  C 10.592447916666668 26.11111111111111  12.838541666666664 26.782945736434108  15.273437500000002 26.782945736434108  C 16.927083333333336 26.782945736434108  18.51236979166667 26.45994832041343  20.029296875 25.813953488372093  C 21.546223958333332 25.16795865633075  22.8515625 24.302325581395348  23.9453125 23.217054263565892  C 25.0390625 22.131782945736436  25.911458333333332 20.836563307493538  26.5625 19.331395348837212  C 27.21354166666667 17.826227390180875  27.5390625 16.253229974160202  27.5390625 14.612403100775195  C 27.5390625 12.97157622739018  27.21354166666667 11.398578811369507  26.5625 9.893410852713178  C 25.911458333333332 8.388242894056846  25.0390625 7.093023255813953  23.9453125 6.007751937984496  C 22.8515625 4.922480620155039  21.546223958333332 4.056847545219636  20.029296875 3.4108527131782953  C 18.51236979166667 2.7648578811369475  16.927083333333336 2.44186046511628  15.273437500000002 2.44186046511628  C 13.619791666666668 2.44186046511628  12.034505208333336 2.7648578811369475  10.517578125 3.4108527131782953  C 9.000651041666666 4.056847545219636  7.695312500000001 4.922480620155039  6.6015625 6.007751937984496  C 5.5078125 7.093023255813953  4.635416666666667 8.388242894056846  3.984375 9.893410852713178  C 3.3333333333333335 11.398578811369507  3.0078125 12.97157622739018  3.0078125 14.612403100775195  C 3.0078125 17.23514211886305  3.7890625000000004 19.612403100775193  5.3515625 21.744186046511626  L 3.80859375 26.25968992248062  L 8.53515625 24.767441860465116  Z M 9.560546875 1.1627906976744173  C 11.376953125 0.38759689922480467  13.28125 0  15.273437500000002 0  C 17.265625 0  19.169921875 0.38759689922480467  20.986328125 1.1627906976744173  C 22.802734375 1.93798449612403  24.368489583333336 2.978036175710592  25.68359375 4.282945736434107  C 26.99869791666667 5.587855297157622  28.046875 7.141472868217056  28.828125 8.943798449612405  C 29.609375 10.74612403100775  30 12.63565891472868  30 14.612403100775195  C 30 16.589147286821703  29.609375 18.478682170542637  28.828125 20.281007751937985  C 28.046875 22.083333333333336  26.99869791666667 23.636950904392762  25.68359375 24.94186046511628  C 24.368489583333336 26.24677002583979  22.802734375 27.28682170542636  20.986328125 28.06201550387597  C 19.169921875 28.837209302325583  17.265625 29.224806201550386  15.273437500000002 29.224806201550386  C 12.734375 29.224806201550386  10.358072916666668 28.617571059431526  8.14453125 27.4031007751938  L 0 30  L 2.65625 22.151162790697676  C 1.25 19.851421188630493  0.546875 17.338501291989665  0.546875 14.612403100775195  C 0.546875 12.63565891472868  0.9375 10.74612403100775  1.71875 8.943798449612405  C 2.5 7.141472868217056  3.548177083333334 5.587855297157622  4.86328125 4.282945736434107  C 6.178385416666668 2.978036175710592  7.744140624999999 1.93798449612403  9.560546875 1.1627906976744173  Z " fill-rule="nonzero" fill="#ffffff" stroke="none" transform="matrix(1 0 0 1 316 131 )" />
  </g>
</svg>