<?xml version="1.0" encoding="utf-8"?>
<svg version="1.1" xmlns:xlink="http://www.w3.org/1999/xlink" width="30px" height="30px" xmlns="http://www.w3.org/2000/svg">
  <g transform="matrix(1 0 0 1 -361 -131 )">
    <path d="M 26.45939086294416 4.734375000000001  C 27.639593908629443 4.578125  28.81979695431472 4.187499999999995  30 3.562500000000001  C 29.149746192893407 5.0937499999999964  28.121827411167516 6.398437499999999  26.916243654822335 7.476562500000002  C 26.928934010152286 7.695312499999999  26.935279187817258 8.023437499999996  26.935279187817258 8.460937499999998  C 26.935279187817258 10.492187499999996  26.694162436548226 12.519531249999998  26.211928934010153 14.54296875  C 25.729695431472084 16.566406249999996  24.996827411167512 18.5078125  24.013324873096447 20.3671875  C 23.029822335025383 22.2265625  21.859137055837568 23.87109375  20.501269035532996 25.30078125  C 19.143401015228427 26.73046875  17.506345177664976 27.87109375  15.590101522842641 28.72265625  C 13.673857868020306 29.574218749999996  11.624365482233504 30  9.441624365482234 30  C 6.002538071065991 30  2.8553299492385786 28.8671875  0 26.6015625  C 0.44416243654822357 26.664062500000004  0.9390862944162438 26.6953125  1.484771573604061 26.6953125  C 4.340101522842641 26.6953125  6.884517766497462 25.6171875  9.118020304568528 23.4609375  C 7.785532994923859 23.429687499999996  6.59263959390863 22.925781249999996  5.539340101522843 21.94921875  C 4.486040609137056 20.972656249999996  3.76269035532995 19.726562499999996  3.369289340101523 18.2109375  C 3.7880710659898478 18.2890625  4.1751269035533 18.328125  4.530456852791878 18.328125  C 5.0761421319796955 18.328125  5.615482233502538 18.2421875  6.148477157360405 18.0703125  C 4.727157360406092 17.7109375  3.5501269035533 16.83984375  2.6173857868020307 15.45703125  C 1.6846446700507616 14.07421875  1.2182741116751272 12.46875  1.2182741116751268 10.640625000000002  L 1.2182741116751268 10.546875  C 2.0812182741116754 11.140625  3.0076142131979693 11.460937499999998  3.9974619289340105 11.507812499999998  C 3.1598984771573604 10.820312499999998  2.4936548223350252 9.921874999999998  1.9987309644670053 8.812499999999998  C 1.5038071065989846 7.703124999999995  1.2563451776649746 6.4999999999999964  1.2563451776649746 5.203125000000001  C 1.2563451776649746 3.828124999999999  1.535532994923858 2.5546875000000013  2.0939086294416245 1.3828125000000013  C 3.6294416243654823 3.710937499999999  5.498096446700508 5.57421875  7.699873096446701 6.97265625  C 9.901649746192895 8.37109375  12.258883248730964 9.1484375  14.771573604060913 9.3046875  C 14.67005076142132 8.710937499999998  14.619289340101524 8.132812499999996  14.619289340101524 7.570312499999999  C 14.619289340101524 5.476562499999995  15.218908629441623 3.69140625  16.418147208121827 2.214843750000001  C 17.61738578680203 0.7382812500000013  19.067258883248734 0  20.767766497461928 0  C 22.544416243654826 0  24.04187817258883 0.7968750000000013  25.26015228426396 2.390625000000001  C 26.643401015228427 2.062499999999999  27.944162436548222 1.4531250000000007  29.16243654822335 0.5625000000000013  C 28.692893401015233 2.3593749999999956  27.791878172588838 3.75  26.45939086294416 4.734375000000001  Z " fill-rule="nonzero" fill="#ffffff" stroke="none" transform="matrix(1 0 0 1 361 131 )" />
  </g>
</svg>