<?xml version="1.0" encoding="utf-8"?>
<svg version="1.1" xmlns:xlink="http://www.w3.org/1999/xlink" width="30px" height="30px" xmlns="http://www.w3.org/2000/svg">
  <g transform="matrix(1 0 0 1 -406 -131 )">
    <path d="M 7.470703125 2.061374249499667  C 9.768880208333334 0.6871247498332211  12.278645833333334 0  15 0  C 17.721354166666668 0  20.23111979166667 0.6871247498332211  22.529296875 2.061374249499667  C 24.827473958333332 3.4356237491661092  26.64713541666667 5.300200133422281  27.98828125 7.655103402268177  C 29.32942708333333 10.010006671114075  30 12.581721147431617  30 15.370246831220815  C 30 18.719146097398262  29.04622395833333 21.731154102735157  27.138671875 24.406270847231486  C 25.231119791666668 27.08138759172782  22.766927083333336 28.93262174783189  19.74609375 29.959973315543696  C 19.394531250000004 30.026684456304203  19.134114583333336 29.979986657771846  18.96484375 29.819879919946633  C 18.795572916666668 29.659773182121416  18.7109375 29.459639759839895  18.7109375 29.21947965310207  C 18.7109375 29.179452968645762  18.714192708333336 28.669112741827888  18.720703125 27.688458972648434  C 18.727213541666668 26.70780520346898  18.73046875 25.81054036024016  18.73046875 24.996664442961976  C 18.73046875 23.702468312208136  18.391927083333336 22.755170113408937  17.71484375 22.154769846564374  C 18.45703125 22.07471647765177  19.124348958333336 21.954636424282853  19.716796875 21.79452968645764  C 20.309244791666668 21.634422948632423  20.921223958333336 21.374249499666444  21.552734375 21.014009339559706  C 22.184244791666668 20.65376917945297  22.711588541666668 20.210140093395598  23.134765625 19.68312208138759  C 23.557942708333336 19.156104069379584  23.90299479166667 18.455637091394262  24.169921875 17.58172114743162  C 24.436848958333336 16.70780520346898  24.5703125 15.703802535023346  24.5703125 14.56971314209473  C 24.5703125 12.981987991994663  24.055989583333336 11.60773849232822  23.02734375 10.446964643095399  C 23.509114583333332 9.23282188125417  23.45703125 7.871914609739826  22.87109375 6.364242828552368  C 22.506510416666668 6.244162775183457  21.979166666666668 6.3175450300200096  21.2890625 6.584389593062042  C 20.598958333333336 6.851234156104068  20 7.144763175450302  19.4921875 7.464976651100733  L 18.75 7.9452968645763855  C 17.539062500000004 7.5983989326217465  16.289062500000004 7.42494996664443  15 7.42494996664443  C 13.7109375 7.42494996664443  12.4609375 7.5983989326217465  11.25 7.9452968645763855  C 11.041666666666668 7.7985323549032675  10.764973958333336 7.618412274849896  10.419921875 7.404936624416276  C 10.074869791666668 7.191460973982653  9.531250000000002 6.934623082054704  8.7890625 6.634422948632422  C 8.046875 6.334222815210141  7.493489583333335 6.244162775183457  7.12890625 6.364242828552368  C 6.54296875 7.871914609739826  6.490885416666667 9.23282188125417  6.97265625 10.446964643095399  C 5.944010416666668 11.60773849232822  5.4296875 12.981987991994663  5.4296875 14.56971314209473  C 5.4296875 15.703802535023346  5.563151041666668 16.704469646430955  5.830078125 17.571714476317545  C 6.097005208333333 18.438959306204133  6.438802083333334 19.139426284189458  6.85546875 19.673115410273518  C 7.272135416666668 20.206804536357566  7.796223958333334 20.65376917945297  8.427734375 21.014009339559706  C 9.059244791666666 21.374249499666444  9.671223958333334 21.634422948632423  10.263671875 21.79452968645764  C 10.856119791666668 21.954636424282853  11.5234375 22.07471647765177  12.265625 22.154769846564374  C 11.7578125 22.635090060040028  11.438802083333336 23.32221480987325  11.30859375 24.216144096064042  C 11.03515625 24.34956637758506  10.7421875 24.449633088725818  10.4296875 24.51634422948632  C 10.1171875 24.583055370246832  9.74609375 24.616410940627084  9.31640625 24.616410940627084  C 8.886718750000002 24.616410940627084  8.460286458333336 24.472981987991993  8.037109375 24.186124082721815  C 7.613932291666668 23.899266177451636  7.252604166666667 23.482321547698465  6.953125 22.935290193462308  C 6.705729166666668 22.50833889259506  6.389973958333333 22.161440960640427  6.005859375 21.8945963975984  C 5.621744791666668 21.627751834556367  5.299479166666668 21.46764509673115  5.0390625 21.41427618412275  L 4.6484375 21.35423615743829  C 4.375 21.35423615743829  4.186197916666667 21.384256170780517  4.08203125 21.44429619746498  C 3.977864583333334 21.504336224149434  3.9453125000000004 21.581054036024018  3.984375 21.674449633088727  C 4.0234375 21.767845230153434  4.08203125 21.861240827218143  4.16015625 21.954636424282853  C 4.238281250000001 22.048032021347563  4.322916666666667 22.12808539026017  4.4140625 22.194796531020682  L 4.55078125 22.29486324216144  C 4.837239583333333 22.42828552368245  5.120442708333334 22.68178785857238  5.400390625 23.05537024683122  C 5.680338541666668 23.428952635090056  5.885416666666668 23.769179452968643  6.015625 24.07605070046698  L 6.2109375 24.536357571714476  C 6.380208333333334 25.04336224149433  6.666666666666667 25.453635757171444  7.0703125 25.76717811874583  C 7.473958333333335 26.080720480320217  7.910156250000002 26.280853902601738  8.37890625 26.36757838559039  C 8.847656250000002 26.45430286857905  9.300130208333336 26.50100066711141  9.736328125 26.507671781187458  C 10.172526041666666 26.514342895263507  10.533854166666668 26.490993995997332  10.8203125 26.437625083388927  L 11.26953125 26.357571714476318  C 11.26953125 26.864576384256168  11.272786458333336 27.454969979986654  11.279296875 28.128752501667776  C 11.285807291666666 28.8025350233489  11.2890625 29.16611074049366  11.2890625 29.21947965310207  C 11.2890625 29.459639759839895  11.204427083333336 29.659773182121416  11.03515625 29.819879919946633  C 10.865885416666668 29.979986657771846  10.60546875 30.026684456304203  10.25390625 29.959973315543696  C 7.233072916666668 28.93262174783189  4.768880208333334 27.08138759172782  2.861328125 24.406270847231486  C 0.9537760416666665 21.731154102735157  0 18.719146097398262  0 15.370246831220815  C 0 12.581721147431617  0.6705729166666665 10.010006671114075  2.01171875 7.655103402268177  C 3.352864583333334 5.300200133422281  5.172526041666667 3.4356237491661092  7.470703125 2.061374249499667  Z M 5.4296875 22.11474316210807  C 5.546875 22.194796531020682  5.631510416666668 22.18145430286858  5.68359375 22.07471647765177  C 5.72265625 21.98132088058706  5.677083333333334 21.901267511674448  5.546875 21.834556370913944  C 5.416666666666668 21.79452968645764  5.33203125 21.807871914609734  5.29296875 21.87458305537025  C 5.25390625 21.967978652434955  5.299479166666668 22.048032021347563  5.4296875 22.11474316210807  Z M 5.9765625 22.695130086724483  C 6.106770833333334 22.828552368245493  6.2109375 22.848565710473647  6.2890625 22.755170113408937  C 6.380208333333334 22.68845897264843  6.3671875 22.581721147431622  6.25 22.434956637758507  C 6.119791666666668 22.31487658438959  6.015625 22.29486324216144  5.9375 22.37491661107405  C 5.846354166666667 22.441627751834552  5.859375 22.548365577051367  5.9765625 22.695130086724483  Z M 6.54296875 23.515677118078717  C 6.66015625 23.68912608405604  6.770833333333333 23.73582388258839  6.875 23.655770513675783  C 6.9921875 23.562374916611073  6.9921875 23.435623749166112  6.875 23.275517011340895  C 6.770833333333333 23.102068045363573  6.66015625 23.06204136090727  6.54296875 23.15543695797198  C 6.42578125 23.22214809873249  6.42578125 23.3422281521014  6.54296875 23.515677118078717  Z M 7.3046875 24.436290860573717  C 7.4609375 24.596397598398934  7.591145833333334 24.616410940627084  7.695312500000001 24.496330887258175  C 7.799479166666667 24.38959306204136  7.773437500000001 24.262841894596395  7.6171875 24.11607738492328  C 7.4609375 23.955970647098063  7.330729166666668 23.935957304869913  7.2265625 24.056037358238825  C 7.109375 24.162775183455636  7.135416666666667 24.289526350900598  7.3046875 24.436290860573717  Z M 8.4375 25.116744496330885  C 8.6328125 25.196797865243497  8.756510416666668 25.15677118078719  8.80859375 24.996664442961976  C 8.84765625 24.84989993328886  8.763020833333334 24.743162108072045  8.5546875 24.676450967311542  C 8.359375000000002 24.623082054703136  8.235677083333334 24.669779853235493  8.18359375 24.816544362908605  C 8.131510416666668 24.96330887258172  8.216145833333334 25.06337558372248  8.4375 25.116744496330885  Z M 9.7265625 25.316877918612406  C 9.934895833333334 25.316877918612406  10.0390625 25.243495663775846  10.0390625 25.096731154102734  C 10.0390625 24.923282188125416  9.928385416666668 24.84989993328886  9.70703125 24.876584389593063  C 9.498697916666666 24.876584389593063  9.39453125 24.949966644429622  9.39453125 25.096731154102734  C 9.39453125 25.270180120080056  9.505208333333334 25.34356237491661  9.7265625 25.316877918612406  Z M 10.8984375 25.176784523015343  C 11.106770833333334 25.123415610406937  11.197916666666666 25.03002001334223  11.171875 24.896597731821217  C 11.145833333333336 24.7498332221481  11.028645833333336 24.689793195463643  10.8203125 24.716477651767843  C 10.611979166666666 24.756504336224147  10.520833333333334 24.85657104736491  10.546875 25.016677785190126  C 10.572916666666668 25.176784523015343  10.690104166666668 25.230153435623752  10.8984375 25.176784523015343  Z " fill-rule="nonzero" fill="#ffffff" stroke="none" transform="matrix(1 0 0 1 406 131 )" />
  </g>
</svg>