<?xml version="1.0" encoding="utf-8"?>
<svg version="1.1" xmlns:xlink="http://www.w3.org/1999/xlink" width="30px" height="30px" xmlns="http://www.w3.org/2000/svg">
  <g transform="matrix(1 0 0 1 -226 -181 )">
    <path d="M 15.308970099667773 18.007812500000004  L 15.308970099667773 13  L 29.760797342192692 13  C 29.920265780730897 13.723958333333334  30 14.557291666666664  30 15.3515625  C 30 18.17708333333333  29.395348837209305 20.699869791666664  28.186046511627907 22.919921875  C 26.976744186046517 25.139973958333336  25.252491694352162 26.875  23.01328903654485 28.125  C 20.774086378737543 29.375  18.205980066445182 30  15.308970099667773 30  C 13.222591362126247 30  11.235880398671098 29.606119791666668  9.348837209302326 28.818359375  C 7.4617940199335555 28.030598958333336  5.833887043189369 26.966145833333332  4.465116279069767 25.625  C 3.096345514950166 24.283854166666664  2.009966777408638 22.688802083333332  1.2059800664451827 20.839843749999996  C 0.40199335548172754 18.990885416666664  0 17.044270833333336  0 15  C 0 12.955729166666664  0.40199335548172754 11.009114583333332  1.2059800664451827 9.160156249999998  C 2.009966777408638 7.311197916666666  3.096345514950166 5.7161458333333295  4.465116279069767 4.375000000000001  C 5.833887043189369 3.033854166666666  7.4617940199335555 1.9694010416666652  9.348837209302326 1.181640625000001  C 11.235880398671098 0.3938802083333304  13.222591362126247 0  15.308970099667773 0  C 19.295681063122924 0  22.71760797342193 1.308593749999999  25.57475083056478 3.92578125  L 21.408637873754152 7.8515625  C 19.774086378737543 6.3020833333333295  17.740863787375417 5.527343749999999  15.308970099667773 5.527343749999999  C 13.59468438538206 5.527343749999999  12.00996677740864 5.9505208333333295  10.554817275747508 6.796875  C 9.09966777408638 7.643229166666664  7.946843853820599 8.792317708333329  7.096345514950166 10.244140624999998  C 6.245847176079734 11.695963541666664  5.820598006644518 13.281250000000002  5.820598006644518 15  C 5.820598006644518 16.718750000000004  6.245847176079734 18.30403645833333  7.096345514950166 19.755859374999996  C 7.946843853820599 21.207682291666668  9.09966777408638 22.356770833333332  10.554817275747508 23.203125  C 12.00996677740864 24.049479166666664  13.59468438538206 24.47265625  15.308970099667773 24.47265625  C 16.46511627906977 24.47265625  17.528239202657808 24.31640625  18.498338870431894 24.00390625  C 19.46843853820598 23.69140625  20.265780730897013 23.30078125  20.890365448504983 22.83203125  C 21.514950166112957 22.363281249999996  22.059800664451828 21.829427083333332  22.524916943521596 21.230468750000004  C 22.990033222591364 20.631510416666664  23.33222591362126 20.065104166666668  23.551495016611295 19.531250000000004  C 23.77076411960133 18.99739583333333  23.920265780730897 18.489583333333332  24 18.007812500000004  L 15.308970099667773 18.007812500000004  Z " fill-rule="nonzero" fill="#ffffff" stroke="none" transform="matrix(1 0 0 1 226 181 )" />
  </g>
</svg>