<?xml version="1.0" encoding="utf-8"?>
<svg version="1.1" xmlns:xlink="http://www.w3.org/1999/xlink" width="30px" height="30px" xmlns="http://www.w3.org/2000/svg">
  <g transform="matrix(1 0 0 1 -271 -181 )">
    <path d="M 27.98828125 7.470703125  C 29.32942708333333 9.76888020833333  30 12.278645833333329  30 15  C 30 17.721354166666668  29.32942708333333 20.231119791666664  27.98828125 22.529296875  C 26.64713541666667 24.827473958333332  24.827473958333332 26.647135416666668  22.529296875 27.98828125  C 20.23111979166667 29.329427083333336  17.721354166666668 30  15 30  C 13.5546875 30  12.135416666666666 29.791666666666664  10.7421875 29.375  C 11.510416666666668 28.1640625  12.018229166666666 27.096354166666664  12.265625 26.171875  C 12.3828125 25.729166666666664  12.734375 24.35546875  13.3203125 22.050781250000004  C 13.580729166666668 22.55859375  14.055989583333336 22.998046875  14.74609375 23.369140625  C 15.436197916666668 23.740234375  16.178385416666668 23.92578125  16.97265625 23.92578125  C 18.548177083333336 23.92578125  19.954427083333336 23.479817708333332  21.19140625 22.587890625  C 22.42838541666667 21.695963541666664  23.385416666666668 20.468750000000004  24.0625 18.906249999999996  C 24.739583333333332 17.34375  25.078125 15.5859375  25.078125 13.632812500000002  C 25.078125 12.148437499999998  24.690755208333336 10.755208333333332  23.916015625 9.453124999999998  C 23.14127604166667 8.151041666666664  22.01822916666667 7.08984375  20.546875 6.26953125  C 19.075520833333336 5.44921875  17.415364583333332 5.0390625  15.566406250000002 5.0390625  C 14.19921875 5.0390625  12.923177083333334 5.22786458333333  11.73828125 5.605468750000001  C 10.553385416666666 5.983072916666665  9.547526041666668 6.484375000000001  8.720703125 7.109374999999999  C 7.893880208333334 7.734375  7.184244791666668 8.453776041666666  6.591796875 9.267578125000002  C 5.999348958333334 10.081380208333332  5.563151041666668 10.924479166666664  5.283203125 11.796874999999998  C 5.003255208333334 12.669270833333334  4.863281250000001 13.541666666666664  4.86328125 14.4140625  C 4.863281250000001 15.768229166666664  5.123697916666668 16.959635416666668  5.64453125 17.98828125  C 6.165364583333334 19.016927083333332  6.927083333333334 19.73958333333333  7.929687500000001 20.15625  C 8.3203125 20.312499999999996  8.567708333333334 20.182291666666668  8.671875 19.765625000000004  C 8.697916666666668 19.674479166666664  8.75 19.472656250000004  8.828125 19.16015625  C 8.90625 18.847656249999996  8.958333333333334 18.652343750000004  8.984375 18.57421875  C 9.0625 18.27473958333333  8.990885416666668 17.994791666666664  8.76953125 17.734374999999996  C 8.10546875 16.940104166666664  7.773437499999999 15.957031250000002  7.773437499999999 14.785156249999998  C 7.773437499999999 12.819010416666666  8.453776041666668 11.129557291666664  9.814453125 9.716796874999998  C 11.175130208333336 8.30403645833333  12.955729166666664 7.597656250000001  15.156250000000002 7.597656250000001  C 17.122395833333332 7.597656250000001  18.655598958333336 8.131510416666666  19.755859375 9.19921875  C 20.85611979166667 10.26692708333333  21.40625 11.653645833333332  21.40625 13.359375  C 21.40625 15.572916666666663  20.960286458333332 17.454427083333336  20.068359375 19.003906250000004  C 19.176432291666668 20.553385416666664  18.033854166666668 21.328125  16.640625 21.328125  C 15.846354166666668 21.328125  15.208333333333336 21.044921874999996  14.7265625 20.478515625  C 14.244791666666666 19.912109375000004  14.095052083333334 19.23177083333333  14.27734375 18.437499999999996  C 14.381510416666668 17.981770833333336  14.554036458333336 17.373046875  14.794921875 16.611328125  C 15.035807291666668 15.849609375  15.231119791666668 15.179036458333332  15.380859375 14.599609375000002  C 15.530598958333336 14.020182291666666  15.605468749999998 13.528645833333332  15.605468749999998 13.125  C 15.605468749999998 12.473958333333332  15.429687499999998 11.933593749999998  15.078124999999998 11.503906249999998  C 14.7265625 11.074218749999996  14.225260416666668 10.859374999999998  13.57421875 10.859374999999998  C 12.766927083333336 10.859374999999998  12.083333333333336 11.230468749999998  11.5234375 11.972656249999998  C 10.963541666666666 12.71484375  10.68359375 13.639322916666666  10.68359375 14.746093750000002  C 10.68359375 15.696614583333336  10.846354166666666 16.490885416666668  11.171875 17.128906250000004  L 9.23828125 25.29296875  C 9.016927083333336 26.204427083333332  8.932291666666668 27.356770833333336  8.984375 28.75  C 6.302083333333332 27.565104166666664  4.134114583333333 25.735677083333332  2.48046875 23.26171875  C 0.8268229166666665 20.787760416666664  0 18.033854166666664  0 15  C 0 12.278645833333329  0.6705729166666665 9.76888020833333  2.01171875 7.470703125  C 3.352864583333334 5.172526041666666  5.172526041666667 3.3528645833333304  7.470703125 2.011718749999999  C 9.768880208333334 0.6705729166666641  12.278645833333334 0  15 0  C 17.721354166666668 0  20.23111979166667 0.6705729166666641  22.529296875 2.011718749999999  C 24.827473958333332 3.3528645833333304  26.64713541666667 5.172526041666666  27.98828125 7.470703125  Z " fill-rule="nonzero" fill="#ffffff" stroke="none" transform="matrix(1 0 0 1 271 181 )" />
  </g>
</svg>