<?xml version="1.0" encoding="utf-8"?>
<svg version="1.1" xmlns:xlink="http://www.w3.org/1999/xlink" width="30px" height="30px" xmlns="http://www.w3.org/2000/svg">
  <g transform="matrix(1 0 0 1 -316 -181 )">
    <path d="M 5 11.562499999999998  L 5 25.1171875  L 9.140625 25.1171875  L 9.140625 11.562499999999998  L 5 11.562499999999998  Z M 8.73046875 9.052734375  C 9.199218750000002 8.603515624999998  9.433593750000002 8.046874999999998  9.43359375 7.3828125  C 9.420572916666668 6.705729166666664  9.186197916666668 6.145833333333331  8.73046875 5.703124999999999  C 8.274739583333334 5.260416666666666  7.669270833333333 5.0390625  6.9140625 5.0390625  C 6.158854166666668 5.0390625  5.543619791666668 5.260416666666666  5.068359375 5.703124999999999  C 4.593098958333334 6.145833333333331  4.35546875 6.705729166666664  4.35546875 7.3828125  C 4.35546875 8.046874999999998  4.586588541666667 8.603515624999998  5.048828125 9.052734375  C 5.511067708333333 9.501953125000002  6.11328125 9.7265625  6.85546875 9.7265625  L 6.875 9.7265625  C 7.643229166666668 9.7265625  8.261718750000002 9.501953125000002  8.73046875 9.052734375  Z M 20.859375 17.87109375  L 20.859375 25.1171875  L 25.37109375 25.1171875  L 25.37109375 17.34375  C 25.37109375 15.338541666666663  24.895833333333336 13.821614583333332  23.9453125 12.792968749999998  C 22.99479166666667 11.764322916666666  21.73828125 11.25  20.17578125 11.25  C 18.404947916666668 11.25  17.044270833333336 12.01171875  16.09375 13.53515625  L 16.1328125 13.53515625  L 16.1328125 11.562499999999998  L 11.62109375 11.562499999999998  C 11.66015625 12.421875  11.66015625 16.940104166666664  11.62109375 25.1171875  L 16.1328125 25.1171875  L 16.1328125 17.539062500000004  C 16.1328125 17.044270833333336  16.178385416666668 16.679687499999996  16.26953125 16.445312499999996  C 16.46484375 15.989583333333336  16.7578125 15.602213541666663  17.1484375 15.283203125000002  C 17.5390625 14.964192708333332  18.020833333333336 14.804687500000002  18.59375 14.804687500000002  C 20.104166666666668 14.804687500000002  20.859375 15.826822916666664  20.859375 17.87109375  Z M 28.349609375 1.650390625000001  C 29.449869791666664 2.7506510416666643  30 4.0755208333333295  30 5.625  L 30 24.375  C 30 25.924479166666664  29.449869791666664 27.249348958333336  28.349609375 28.349609375  C 27.249348958333336 29.449869791666664  25.92447916666667 30  24.375 30  L 5.625 30  C 4.075520833333333 30  2.750651041666667 29.449869791666664  1.650390625 28.349609375  C 0.5501302083333333 27.249348958333336  0 25.924479166666664  0 24.375  L 0 5.625  C 0 4.0755208333333295  0.5501302083333333 2.7506510416666643  1.650390625 1.650390625000001  C 2.750651041666667 0.5501302083333315  4.075520833333333 0  5.625 0  L 24.375 0  C 25.92447916666667 0  27.249348958333336 0.5501302083333315  28.349609375 1.650390625000001  Z " fill-rule="nonzero" fill="#ffffff" stroke="none" transform="matrix(1 0 0 1 316 181 )" />
  </g>
</svg>